<svg xmlns="http://www.w3.org/2000/svg" width="900" height="280" viewBox="0 0 900 280">
<defs>
<linearGradient id="bgMain" x1="0%" y1="0%" x2="100%" y2="100%">
  <stop offset="0%"   stop-color="#070412"/>
  <stop offset="35%"  stop-color="#0a0818"/>
  <stop offset="70%"  stop-color="#060d1c"/>
  <stop offset="100%" stop-color="#050508"/>
</linearGradient>
<radialGradient id="glowLeft" cx="18%" cy="55%" r="40%">
  <stop offset="0%"   stop-color="#7C3AED" stop-opacity="0.22"/>
  <stop offset="100%" stop-color="#7C3AED" stop-opacity="0"/>
</radialGradient>
<radialGradient id="glowRight" cx="82%" cy="45%" r="38%">
  <stop offset="0%"   stop-color="#00D4FF" stop-opacity="0.18"/>
  <stop offset="100%" stop-color="#00D4FF" stop-opacity="0"/>
</radialGradient>
<radialGradient id="glowCenter" cx="50%" cy="50%" r="30%">
  <stop offset="0%"   stop-color="#A78BFA" stop-opacity="0.08"/>
  <stop offset="100%" stop-color="#A78BFA" stop-opacity="0"/>
</radialGradient>
<pattern id="grid" width="36" height="36" patternUnits="userSpaceOnUse">
  <path d="M 36 0 L 0 0 0 36" fill="none" stroke="rgba(124,58,237,0.08)" stroke-width="0.5"/>
</pattern>
<pattern id="dots" width="36" height="36" patternUnits="userSpaceOnUse">
  <circle cx="18" cy="18" r="0.8" fill="rgba(0,212,255,0.12)"/>
</pattern>
<filter id="gCyan" x="-40%" y="-40%" width="180%" height="180%">
  <feGaussianBlur in="SourceGraphic" stdDeviation="8" result="b"/>
  <feColorMatrix in="b" type="matrix"
    values="2.8 0 0 0 0.000  0 2.8 0 0 0.831  0 0 2.8 0 1.000  0 0 0 1 0"
    result="g"/>
  <feMerge><feMergeNode in="g"/><feMergeNode in="SourceGraphic"/></feMerge>
</filter>
<filter id="gPur" x="-40%" y="-40%" width="180%" height="180%">
  <feGaussianBlur in="SourceGraphic" stdDeviation="7" result="b"/>
  <feColorMatrix in="b" type="matrix"
    values="2.5 0 0 0 0.655  0 2.5 0 0 0.545  0 0 2.5 0 0.980  0 0 0 1 0"
    result="g"/>
  <feMerge><feMergeNode in="g"/><feMergeNode in="SourceGraphic"/></feMerge>
</filter>
<filter id="gGreen" x="-40%" y="-40%" width="180%" height="180%">
  <feGaussianBlur in="SourceGraphic" stdDeviation="5" result="b"/>
  <feColorMatrix in="b" type="matrix"
    values="2.2 0 0 0 0.000  0 2.2 0 0 1.000  0 0 2.2 0 0.533  0 0 0 1 0"
    result="g"/>
  <feMerge><feMergeNode in="g"/><feMergeNode in="SourceGraphic"/></feMerge>
</filter>
<filter id="gPink" x="-40%" y="-40%" width="180%" height="180%">
  <feGaussianBlur in="SourceGraphic" stdDeviation="5" result="b"/>
  <feColorMatrix in="b" type="matrix"
    values="2.0 0 0 0 0.957  0 2.0 0 0 0.447  0 0 2.0 0 0.714  0 0 0 1 0"
    result="g"/>
  <feMerge><feMergeNode in="g"/><feMergeNode in="SourceGraphic"/></feMerge>
</filter>
<filter id="gWhite" x="-40%" y="-40%" width="180%" height="180%">
  <feGaussianBlur in="SourceGraphic" stdDeviation="4" result="b"/>
  <feColorMatrix in="b" type="matrix"
    values="1.5 0 0 0 1.000  0 1.5 0 0 1.000  0 0 1.5 0 1.000  0 0 0 1 0"
    result="g"/>
  <feMerge><feMergeNode in="g"/><feMergeNode in="SourceGraphic"/></feMerge>
</filter>
<filter id="gBig" x="-40%" y="-40%" width="180%" height="180%">
  <feGaussianBlur in="SourceGraphic" stdDeviation="18" result="b"/>
  <feColorMatrix in="b" type="matrix"
    values="1.8 0 0 0 0.000  0 1.8 0 0 0.831  0 0 1.8 0 1.000  0 0 0 1 0"
    result="g"/>
  <feMerge><feMergeNode in="g"/><feMergeNode in="SourceGraphic"/></feMerge>
</filter>
<clipPath id="mainClip"><rect width="900" height="280" rx="8"/></clipPath>
</defs>
<g clip-path="url(#mainClip)">
<rect width="900" height="280" fill="url(#bgMain)"/>
<rect width="900" height="280" fill="url(#grid)"/>
<rect width="900" height="280" fill="url(#dots)"/>
<rect width="900" height="280" fill="url(#glowLeft)"/>
<rect width="900" height="280" fill="url(#glowRight)"/>
<rect width="900" height="280" fill="url(#glowCenter)"/>
<line x1="0" y1="0" x2="900" y2="0" stroke="rgba(0,0,0,0.18)" stroke-width="1"/>
<line x1="0" y1="3" x2="900" y2="3" stroke="rgba(0,0,0,0.18)" stroke-width="1"/>
<line x1="0" y1="6" x2="900" y2="6" stroke="rgba(0,0,0,0.18)" stroke-width="1"/>
<line x1="0" y1="9" x2="900" y2="9" stroke="rgba(0,0,0,0.18)" stroke-width="1"/>
<line x1="0" y1="12" x2="900" y2="12" stroke="rgba(0,0,0,0.18)" stroke-width="1"/>
<line x1="0" y1="15" x2="900" y2="15" stroke="rgba(0,0,0,0.18)" stroke-width="1"/>
<line x1="0" y1="18" x2="900" y2="18" stroke="rgba(0,0,0,0.18)" stroke-width="1"/>
<line x1="0" y1="21" x2="900" y2="21" stroke="rgba(0,0,0,0.18)" stroke-width="1"/>
<line x1="0" y1="24" x2="900" y2="24" stroke="rgba(0,0,0,0.18)" stroke-width="1"/>
<line x1="0" y1="27" x2="900" y2="27" stroke="rgba(0,0,0,0.18)" stroke-width="1"/>
<line x1="0" y1="30" x2="900" y2="30" stroke="rgba(0,0,0,0.18)" stroke-width="1"/>
<line x1="0" y1="33" x2="900" y2="33" stroke="rgba(0,0,0,0.18)" stroke-width="1"/>
<line x1="0" y1="36" x2="900" y2="36" stroke="rgba(0,0,0,0.18)" stroke-width="1"/>
<line x1="0" y1="39" x2="900" y2="39" stroke="rgba(0,0,0,0.18)" stroke-width="1"/>
<line x1="0" y1="42" x2="900" y2="42" stroke="rgba(0,0,0,0.18)" stroke-width="1"/>
<line x1="0" y1="45" x2="900" y2="45" stroke="rgba(0,0,0,0.18)" stroke-width="1"/>
<line x1="0" y1="48" x2="900" y2="48" stroke="rgba(0,0,0,0.18)" stroke-width="1"/>
<line x1="0" y1="51" x2="900" y2="51" stroke="rgba(0,0,0,0.18)" stroke-width="1"/>
<line x1="0" y1="54" x2="900" y2="54" stroke="rgba(0,0,0,0.18)" stroke-width="1"/>
<line x1="0" y1="57" x2="900" y2="57" stroke="rgba(0,0,0,0.18)" stroke-width="1"/>
<line x1="0" y1="60" x2="900" y2="60" stroke="rgba(0,0,0,0.18)" stroke-width="1"/>
<line x1="0" y1="63" x2="900" y2="63" stroke="rgba(0,0,0,0.18)" stroke-width="1"/>
<line x1="0" y1="66" x2="900" y2="66" stroke="rgba(0,0,0,0.18)" stroke-width="1"/>
<line x1="0" y1="69" x2="900" y2="69" stroke="rgba(0,0,0,0.18)" stroke-width="1"/>
<line x1="0" y1="72" x2="900" y2="72" stroke="rgba(0,0,0,0.18)" stroke-width="1"/>
<line x1="0" y1="75" x2="900" y2="75" stroke="rgba(0,0,0,0.18)" stroke-width="1"/>
<line x1="0" y1="78" x2="900" y2="78" stroke="rgba(0,0,0,0.18)" stroke-width="1"/>
<line x1="0" y1="81" x2="900" y2="81" stroke="rgba(0,0,0,0.18)" stroke-width="1"/>
<line x1="0" y1="84" x2="900" y2="84" stroke="rgba(0,0,0,0.18)" stroke-width="1"/>
<line x1="0" y1="87" x2="900" y2="87" stroke="rgba(0,0,0,0.18)" stroke-width="1"/>
<line x1="0" y1="90" x2="900" y2="90" stroke="rgba(0,0,0,0.18)" stroke-width="1"/>
<line x1="0" y1="93" x2="900" y2="93" stroke="rgba(0,0,0,0.18)" stroke-width="1"/>
<line x1="0" y1="96" x2="900" y2="96" stroke="rgba(0,0,0,0.18)" stroke-width="1"/>
<line x1="0" y1="99" x2="900" y2="99" stroke="rgba(0,0,0,0.18)" stroke-width="1"/>
<line x1="0" y1="102" x2="900" y2="102" stroke="rgba(0,0,0,0.18)" stroke-width="1"/>
<line x1="0" y1="105" x2="900" y2="105" stroke="rgba(0,0,0,0.18)" stroke-width="1"/>
<line x1="0" y1="108" x2="900" y2="108" stroke="rgba(0,0,0,0.18)" stroke-width="1"/>
<line x1="0" y1="111" x2="900" y2="111" stroke="rgba(0,0,0,0.18)" stroke-width="1"/>
<line x1="0" y1="114" x2="900" y2="114" stroke="rgba(0,0,0,0.18)" stroke-width="1"/>
<line x1="0" y1="117" x2="900" y2="117" stroke="rgba(0,0,0,0.18)" stroke-width="1"/>
<line x1="0" y1="120" x2="900" y2="120" stroke="rgba(0,0,0,0.18)" stroke-width="1"/>
<line x1="0" y1="123" x2="900" y2="123" stroke="rgba(0,0,0,0.18)" stroke-width="1"/>
<line x1="0" y1="126" x2="900" y2="126" stroke="rgba(0,0,0,0.18)" stroke-width="1"/>
<line x1="0" y1="129" x2="900" y2="129" stroke="rgba(0,0,0,0.18)" stroke-width="1"/>
<line x1="0" y1="132" x2="900" y2="132" stroke="rgba(0,0,0,0.18)" stroke-width="1"/>
<line x1="0" y1="135" x2="900" y2="135" stroke="rgba(0,0,0,0.18)" stroke-width="1"/>
<line x1="0" y1="138" x2="900" y2="138" stroke="rgba(0,0,0,0.18)" stroke-width="1"/>
<line x1="0" y1="141" x2="900" y2="141" stroke="rgba(0,0,0,0.18)" stroke-width="1"/>
<line x1="0" y1="144" x2="900" y2="144" stroke="rgba(0,0,0,0.18)" stroke-width="1"/>
<line x1="0" y1="147" x2="900" y2="147" stroke="rgba(0,0,0,0.18)" stroke-width="1"/>
<line x1="0" y1="150" x2="900" y2="150" stroke="rgba(0,0,0,0.18)" stroke-width="1"/>
<line x1="0" y1="153" x2="900" y2="153" stroke="rgba(0,0,0,0.18)" stroke-width="1"/>
<line x1="0" y1="156" x2="900" y2="156" stroke="rgba(0,0,0,0.18)" stroke-width="1"/>
<line x1="0" y1="159" x2="900" y2="159" stroke="rgba(0,0,0,0.18)" stroke-width="1"/>
<line x1="0" y1="162" x2="900" y2="162" stroke="rgba(0,0,0,0.18)" stroke-width="1"/>
<line x1="0" y1="165" x2="900" y2="165" stroke="rgba(0,0,0,0.18)" stroke-width="1"/>
<line x1="0" y1="168" x2="900" y2="168" stroke="rgba(0,0,0,0.18)" stroke-width="1"/>
<line x1="0" y1="171" x2="900" y2="171" stroke="rgba(0,0,0,0.18)" stroke-width="1"/>
<line x1="0" y1="174" x2="900" y2="174" stroke="rgba(0,0,0,0.18)" stroke-width="1"/>
<line x1="0" y1="177" x2="900" y2="177" stroke="rgba(0,0,0,0.18)" stroke-width="1"/>
<line x1="0" y1="180" x2="900" y2="180" stroke="rgba(0,0,0,0.18)" stroke-width="1"/>
<line x1="0" y1="183" x2="900" y2="183" stroke="rgba(0,0,0,0.18)" stroke-width="1"/>
<line x1="0" y1="186" x2="900" y2="186" stroke="rgba(0,0,0,0.18)" stroke-width="1"/>
<line x1="0" y1="189" x2="900" y2="189" stroke="rgba(0,0,0,0.18)" stroke-width="1"/>
<line x1="0" y1="192" x2="900" y2="192" stroke="rgba(0,0,0,0.18)" stroke-width="1"/>
<line x1="0" y1="195" x2="900" y2="195" stroke="rgba(0,0,0,0.18)" stroke-width="1"/>
<line x1="0" y1="198" x2="900" y2="198" stroke="rgba(0,0,0,0.18)" stroke-width="1"/>
<line x1="0" y1="201" x2="900" y2="201" stroke="rgba(0,0,0,0.18)" stroke-width="1"/>
<line x1="0" y1="204" x2="900" y2="204" stroke="rgba(0,0,0,0.18)" stroke-width="1"/>
<line x1="0" y1="207" x2="900" y2="207" stroke="rgba(0,0,0,0.18)" stroke-width="1"/>
<line x1="0" y1="210" x2="900" y2="210" stroke="rgba(0,0,0,0.18)" stroke-width="1"/>
<line x1="0" y1="213" x2="900" y2="213" stroke="rgba(0,0,0,0.18)" stroke-width="1"/>
<line x1="0" y1="216" x2="900" y2="216" stroke="rgba(0,0,0,0.18)" stroke-width="1"/>
<line x1="0" y1="219" x2="900" y2="219" stroke="rgba(0,0,0,0.18)" stroke-width="1"/>
<line x1="0" y1="222" x2="900" y2="222" stroke="rgba(0,0,0,0.18)" stroke-width="1"/>
<line x1="0" y1="225" x2="900" y2="225" stroke="rgba(0,0,0,0.18)" stroke-width="1"/>
<line x1="0" y1="228" x2="900" y2="228" stroke="rgba(0,0,0,0.18)" stroke-width="1"/>
<line x1="0" y1="231" x2="900" y2="231" stroke="rgba(0,0,0,0.18)" stroke-width="1"/>
<line x1="0" y1="234" x2="900" y2="234" stroke="rgba(0,0,0,0.18)" stroke-width="1"/>
<line x1="0" y1="237" x2="900" y2="237" stroke="rgba(0,0,0,0.18)" stroke-width="1"/>
<line x1="0" y1="240" x2="900" y2="240" stroke="rgba(0,0,0,0.18)" stroke-width="1"/>
<line x1="0" y1="243" x2="900" y2="243" stroke="rgba(0,0,0,0.18)" stroke-width="1"/>
<line x1="0" y1="246" x2="900" y2="246" stroke="rgba(0,0,0,0.18)" stroke-width="1"/>
<line x1="0" y1="249" x2="900" y2="249" stroke="rgba(0,0,0,0.18)" stroke-width="1"/>
<line x1="0" y1="252" x2="900" y2="252" stroke="rgba(0,0,0,0.18)" stroke-width="1"/>
<line x1="0" y1="255" x2="900" y2="255" stroke="rgba(0,0,0,0.18)" stroke-width="1"/>
<line x1="0" y1="258" x2="900" y2="258" stroke="rgba(0,0,0,0.18)" stroke-width="1"/>
<line x1="0" y1="261" x2="900" y2="261" stroke="rgba(0,0,0,0.18)" stroke-width="1"/>
<line x1="0" y1="264" x2="900" y2="264" stroke="rgba(0,0,0,0.18)" stroke-width="1"/>
<line x1="0" y1="267" x2="900" y2="267" stroke="rgba(0,0,0,0.18)" stroke-width="1"/>
<line x1="0" y1="270" x2="900" y2="270" stroke="rgba(0,0,0,0.18)" stroke-width="1"/>
<line x1="0" y1="273" x2="900" y2="273" stroke="rgba(0,0,0,0.18)" stroke-width="1"/>
<line x1="0" y1="276" x2="900" y2="276" stroke="rgba(0,0,0,0.18)" stroke-width="1"/>
<line x1="0" y1="279" x2="900" y2="279" stroke="rgba(0,0,0,0.18)" stroke-width="1"/>
<path d="M 0,70 L 120,70 L 145,50 L 220,50" fill="none" stroke="rgba(124,58,237,0.35)" stroke-width="0.8" stroke-linecap="round"/>
<path d="M 0,202 L 90,202 L 110,182 L 200,182" fill="none" stroke="rgba(124,58,237,0.35)" stroke-width="0.8" stroke-linecap="round"/>
<path d="M 0,134 L 60,134 L 80,118 L 170,118" fill="none" stroke="rgba(124,58,237,0.35)" stroke-width="0.8" stroke-linecap="round"/>
<path d="M 120,70 L 120,106" fill="none" stroke="rgba(124,58,237,0.35)" stroke-width="0.8" stroke-linecap="round"/>
<path d="M 90,202 L 90,154" fill="none" stroke="rgba(124,58,237,0.35)" stroke-width="0.8" stroke-linecap="round"/>
<path d="M 60,134 L 60,202" fill="none" stroke="rgba(124,58,237,0.35)" stroke-width="0.8" stroke-linecap="round"/>
<circle cx="120" cy="70" r="5.5" fill="rgba(124,58,237,0.12)"/>
<circle cx="120" cy="70" r="2.5" fill="rgba(124,58,237,0.9)" filter="url(#gCyan)"/>
<circle cx="90" cy="202" r="5.5" fill="rgba(124,58,237,0.12)"/>
<circle cx="90" cy="202" r="2.5" fill="rgba(124,58,237,0.9)" filter="url(#gCyan)"/>
<circle cx="60" cy="134" r="5" fill="rgba(8,145,178,0.12)"/>
<circle cx="60" cy="134" r="2" fill="rgba(8,145,178,0.9)" filter="url(#gCyan)"/>
<circle cx="145" cy="50" r="6" fill="rgba(0,212,255,0.12)"/>
<circle cx="145" cy="50" r="3" fill="rgba(0,212,255,0.9)" filter="url(#gCyan)"/>
<circle cx="110" cy="182" r="5.5" fill="rgba(167,139,250,0.12)"/>
<circle cx="110" cy="182" r="2.5" fill="rgba(167,139,250,0.9)" filter="url(#gCyan)"/>
<circle cx="80" cy="118" r="5" fill="rgba(124,58,237,0.12)"/>
<circle cx="80" cy="118" r="2" fill="rgba(124,58,237,0.9)" filter="url(#gCyan)"/>
<circle cx="170" cy="118" r="5.5" fill="rgba(0,212,255,0.12)"/>
<circle cx="170" cy="118" r="2.5" fill="rgba(0,212,255,0.9)" filter="url(#gCyan)"/>
<circle cx="200" cy="50" r="5" fill="rgba(167,139,250,0.12)"/>
<circle cx="200" cy="50" r="2" fill="rgba(167,139,250,0.9)" filter="url(#gCyan)"/>
<circle cx="220" cy="50" r="6.5" fill="rgba(0,212,255,0.12)"/>
<circle cx="220" cy="50" r="3.5" fill="rgba(0,212,255,0.9)" filter="url(#gCyan)"/>
<path d="M 900,84 L 790,84 L 765,62 L 690,62" fill="none" stroke="rgba(0,212,255,0.3)" stroke-width="0.8" stroke-linecap="round"/>
<path d="M 900,190 L 820,190 L 800,210 L 705,210" fill="none" stroke="rgba(0,212,255,0.3)" stroke-width="0.8" stroke-linecap="round"/>
<path d="M 900,146 L 845,146 L 825,126 L 735,126" fill="none" stroke="rgba(0,212,255,0.3)" stroke-width="0.8" stroke-linecap="round"/>
<path d="M 790,84 L 790,146" fill="none" stroke="rgba(0,212,255,0.3)" stroke-width="0.8" stroke-linecap="round"/>
<path d="M 820,190 L 820,146" fill="none" stroke="rgba(0,212,255,0.3)" stroke-width="0.8" stroke-linecap="round"/>
<circle cx="790" cy="84" r="5.5" fill="rgba(0,212,255,0.12)"/>
<circle cx="790" cy="84" r="2.5" fill="rgba(0,212,255,0.9)" filter="url(#gCyan)"/>
<circle cx="820" cy="190" r="5.5" fill="rgba(0,212,255,0.12)"/>
<circle cx="820" cy="190" r="2.5" fill="rgba(0,212,255,0.9)" filter="url(#gCyan)"/>
<circle cx="845" cy="146" r="5" fill="rgba(167,139,250,0.12)"/>
<circle cx="845" cy="146" r="2" fill="rgba(167,139,250,0.9)" filter="url(#gCyan)"/>
<circle cx="765" cy="62" r="6" fill="rgba(124,58,237,0.12)"/>
<circle cx="765" cy="62" r="3" fill="rgba(124,58,237,0.9)" filter="url(#gCyan)"/>
<circle cx="800" cy="210" r="5.5" fill="rgba(103,232,249,0.12)"/>
<circle cx="800" cy="210" r="2.5" fill="rgba(103,232,249,0.9)" filter="url(#gCyan)"/>
<circle cx="825" cy="126" r="5" fill="rgba(0,212,255,0.12)"/>
<circle cx="825" cy="126" r="2" fill="rgba(0,212,255,0.9)" filter="url(#gCyan)"/>
<circle cx="735" cy="126" r="5.5" fill="rgba(167,139,250,0.12)"/>
<circle cx="735" cy="126" r="2.5" fill="rgba(167,139,250,0.9)" filter="url(#gCyan)"/>
<circle cx="705" cy="210" r="5" fill="rgba(0,212,255,0.12)"/>
<circle cx="705" cy="210" r="2" fill="rgba(0,212,255,0.9)" filter="url(#gCyan)"/>
<circle cx="690" cy="62" r="6.5" fill="rgba(167,139,250,0.12)"/>
<circle cx="690" cy="62" r="3.5" fill="rgba(167,139,250,0.9)" filter="url(#gCyan)"/>
<path d="M 430,34 C 390,17 340,22 320,70 C 300,112 310,154 340,182 C 360,210 400,218 450,218 C 500,218 540,210 560,182 C 590,154 600,112 580,70 C 560,22 510,17 470,34 Z" fill="rgba(124,58,237,0.04)" stroke="rgba(167,139,250,0.12)" stroke-width="0.8"/>
<line x1="380" y1="78" x2="420" y2="126" stroke="rgba(0,212,255,0.15)" stroke-width="0.6"/>
<line x1="420" y1="126" x2="450" y2="98" stroke="rgba(0,212,255,0.15)" stroke-width="0.6"/>
<line x1="450" y1="98" x2="490" y2="140" stroke="rgba(0,212,255,0.15)" stroke-width="0.6"/>
<line x1="490" y1="140" x2="520" y2="90" stroke="rgba(0,212,255,0.15)" stroke-width="0.6"/>
<line x1="380" y1="78" x2="450" y2="62" stroke="rgba(0,212,255,0.15)" stroke-width="0.6"/>
<line x1="450" y1="62" x2="520" y2="90" stroke="rgba(0,212,255,0.15)" stroke-width="0.6"/>
<line x1="420" y1="126" x2="450" y2="168" stroke="rgba(0,212,255,0.15)" stroke-width="0.6"/>
<line x1="450" y1="168" x2="490" y2="140" stroke="rgba(0,212,255,0.15)" stroke-width="0.6"/>
<circle cx="400" cy="102" r="1.5" fill="rgba(0,212,255,0.25)"/>
<circle cx="435" cy="112" r="1.5" fill="rgba(0,212,255,0.25)"/>
<circle cx="470" cy="119" r="1.5" fill="rgba(0,212,255,0.25)"/>
<circle cx="505" cy="115" r="1.5" fill="rgba(0,212,255,0.25)"/>
<circle cx="415" cy="70" r="1.5" fill="rgba(0,212,255,0.25)"/>
<circle cx="485" cy="76" r="1.5" fill="rgba(0,212,255,0.25)"/>
<circle cx="435" cy="147" r="1.5" fill="rgba(0,212,255,0.25)"/>
<circle cx="470" cy="154" r="1.5" fill="rgba(0,212,255,0.25)"/>
<line x1="0" y1="1" x2="900" y2="1" stroke="rgba(124,58,237,0.6)" stroke-width="1.5"/>
<line x1="0" y1="279" x2="900" y2="279" stroke="rgba(0,212,255,0.5)" stroke-width="1.5"/>
<line x1="0" y1="4" x2="900" y2="4" stroke="rgba(124,58,237,0.15)" stroke-width="0.5"/>
<line x1="0" y1="276" x2="900" y2="276" stroke="rgba(0,212,255,0.12)" stroke-width="0.5"/>
<text x="16" y="18" font-family="Space Mono,Courier New,monospace" font-size="8" font-weight="400" fill="rgba(0,212,255,0.55)" letter-spacing="3">NEUROTECHLABS // OPERATOR PROFILE</text>
<circle cx="820" cy="13" r="3" fill="rgba(0,255,136,0.9)" filter="url(#gGreen)"/>
<text x="828" y="18" font-family="Space Mono,monospace" font-size="8" fill="rgba(0,255,136,0.7)" letter-spacing="2">ONLINE</text>
<text x="450" y="132" text-anchor="middle" dominant-baseline="middle" font-family="Space Mono,Courier New,monospace" font-size="46" font-weight="700" fill="rgba(0,212,255,0.08)" letter-spacing="12" transform="translate(2,4)">TACIANA MARINOS</text>
<text x="450" y="132" text-anchor="middle" dominant-baseline="middle" font-family="Space Mono,Courier New,monospace" font-size="46" font-weight="700" fill="#FFFFFF" letter-spacing="12" filter="url(#gBig)">TACIANA MARINOS</text>
<text x="450" y="179" text-anchor="middle" dominant-baseline="middle" font-family="Space Mono,Courier New,monospace" font-size="11.5" font-weight="400" fill="rgba(0,212,255,0.9)" letter-spacing="5" filter="url(#gCyan)">NEUROTECH ENGINEER  ·  AI/ML  ·  HEALTH TECH  ·  BCI</text>
<line x1="280" y1="150" x2="620" y2="150" stroke="rgba(167,139,250,0.5)" stroke-width="0.7"/>
<circle cx="280" cy="150" r="2" fill="rgba(167,139,250,0.7)"/>
<circle cx="365" cy="150" r="2" fill="rgba(167,139,250,0.7)"/>
<circle cx="450" cy="150" r="2" fill="rgba(167,139,250,0.7)"/>
<circle cx="535" cy="150" r="2" fill="rgba(167,139,250,0.7)"/>
<circle cx="620" cy="150" r="2" fill="rgba(167,139,250,0.7)"/>
<rect x="210" y="219" width="65" height="22" rx="2" fill="rgba(167,139,250,0.08)" stroke="rgba(167,139,250,0.45)" stroke-width="0.8"/>
<text x="242" y="231" text-anchor="middle" dominant-baseline="middle" font-family="Space Mono,monospace" font-size="9" font-weight="600" fill="rgba(167,139,250,0.95)" letter-spacing="2">[ CS ]</text>
<rect x="291" y="219" width="132" height="22" rx="2" fill="rgba(244,114,182,0.08)" stroke="rgba(244,114,182,0.45)" stroke-width="0.8"/>
<text x="357" y="231" text-anchor="middle" dominant-baseline="middle" font-family="Space Mono,monospace" font-size="9" font-weight="600" fill="rgba(244,114,182,0.95)" letter-spacing="2">[ GAME DESIGN ]</text>
<rect x="439" y="219" width="118" height="22" rx="2" fill="rgba(0,255,136,0.08)" stroke="rgba(0,255,136,0.45)" stroke-width="0.8"/>
<text x="498" y="231" text-anchor="middle" dominant-baseline="middle" font-family="Space Mono,monospace" font-size="9" font-weight="600" fill="rgba(0,255,136,0.95)" letter-spacing="2">[ DENTISTRY ]</text>
<rect x="573" y="219" width="118" height="22" rx="2" fill="rgba(0,212,255,0.08)" stroke="rgba(0,212,255,0.45)" stroke-width="0.8"/>
<text x="632" y="231" text-anchor="middle" dominant-baseline="middle" font-family="Space Mono,monospace" font-size="9" font-weight="600" fill="rgba(0,212,255,0.95)" letter-spacing="2">[ NEUROTECH ]</text>
<rect x="10" y="16" width="6" height="6" fill="none" stroke="rgba(0,212,255,0.5)" stroke-width="0.8"/>
<rect x="16" y="22" width="6" height="6" fill="none" stroke="rgba(124,58,237,0.4)" stroke-width="0.6"/>
<rect x="878" y="16" width="6" height="6" fill="none" stroke="rgba(0,212,255,0.5)" stroke-width="0.8"/>
<rect x="884" y="22" width="6" height="6" fill="none" stroke="rgba(124,58,237,0.4)" stroke-width="0.6"/>
<rect x="10" y="252" width="6" height="6" fill="none" stroke="rgba(0,212,255,0.5)" stroke-width="0.8"/>
<rect x="16" y="258" width="6" height="6" fill="none" stroke="rgba(124,58,237,0.4)" stroke-width="0.6"/>
<rect x="878" y="252" width="6" height="6" fill="none" stroke="rgba(0,212,255,0.5)" stroke-width="0.8"/>
<rect x="884" y="258" width="6" height="6" fill="none" stroke="rgba(124,58,237,0.4)" stroke-width="0.6"/>
<text x="450" y="270" text-anchor="middle" font-family="Space Mono,monospace" font-size="7.5" fill="rgba(167,139,250,0.4)" letter-spacing="3">github.com/tacianamarinos-neurotech</text>
<line x1="8" y1="30" x2="8" y2="250" stroke="rgba(124,58,237,0.3)" stroke-width="0.8"/>
<line x1="892" y1="30" x2="892" y2="250" stroke="rgba(0,212,255,0.3)" stroke-width="0.8"/>
</g>
</svg>