<svg xmlns="http://www.w3.org/2000/svg" width="900" height="580" viewBox="0 0 900 580">
<defs>
<radialGradient id="bgGrad" cx="50%" cy="50%" r="65%">
  <stop offset="0%" stop-color="#0d0820"/>
  <stop offset="60%" stop-color="#080810"/>
  <stop offset="100%" stop-color="#050508"/>
</radialGradient>
<pattern id="grid" width="40" height="40" patternUnits="userSpaceOnUse">
  <path d="M 40 0 L 0 0 0 40" fill="none" stroke="rgba(124,58,237,0.07)" stroke-width="0.5"/>
</pattern>
<pattern id="dots" width="40" height="40" patternUnits="userSpaceOnUse">
  <circle cx="20" cy="20" r="0.7" fill="rgba(0,212,255,0.15)"/>
</pattern>
<filter id="glow_7C3AED" x="-60%" y="-60%" width="220%" height="220%">
  <feGaussianBlur in="SourceGraphic" stdDeviation="5" result="blur"/>
  <feColorMatrix in="blur" type="matrix"
    values="2.5 0 0 0 0.49 0 2.5 0 0 0.23 0 0 2.5 0 0.93 0 0 0 1 0"
    result="glow"/>
  <feMerge><feMergeNode in="glow"/><feMergeNode in="SourceGraphic"/></feMerge>
</filter>
<filter id="glow_A78BFA" x="-60%" y="-60%" width="220%" height="220%">
  <feGaussianBlur in="SourceGraphic" stdDeviation="5" result="blur"/>
  <feColorMatrix in="blur" type="matrix"
    values="2.5 0 0 0 0.65 0 2.5 0 0 0.55 0 0 2.5 0 0.98 0 0 0 1 0"
    result="glow"/>
  <feMerge><feMergeNode in="glow"/><feMergeNode in="SourceGraphic"/></feMerge>
</filter>
<filter id="glow_F472B6" x="-60%" y="-60%" width="220%" height="220%">
  <feGaussianBlur in="SourceGraphic" stdDeviation="5" result="blur"/>
  <feColorMatrix in="blur" type="matrix"
    values="2.5 0 0 0 0.96 0 2.5 0 0 0.45 0 0 2.5 0 0.71 0 0 0 1 0"
    result="glow"/>
  <feMerge><feMergeNode in="glow"/><feMergeNode in="SourceGraphic"/></feMerge>
</filter>
<filter id="glow_00D4FF" x="-60%" y="-60%" width="220%" height="220%">
  <feGaussianBlur in="SourceGraphic" stdDeviation="5" result="blur"/>
  <feColorMatrix in="blur" type="matrix"
    values="2.5 0 0 0 0.00 0 2.5 0 0 0.83 0 0 2.5 0 1.00 0 0 0 1 0"
    result="glow"/>
  <feMerge><feMergeNode in="glow"/><feMergeNode in="SourceGraphic"/></feMerge>
</filter>
<filter id="glow_888888" x="-60%" y="-60%" width="220%" height="220%">
  <feGaussianBlur in="SourceGraphic" stdDeviation="5" result="blur"/>
  <feColorMatrix in="blur" type="matrix"
    values="2.5 0 0 0 0.53 0 2.5 0 0 0.53 0 0 2.5 0 0.53 0 0 0 1 0"
    result="glow"/>
  <feMerge><feMergeNode in="glow"/><feMergeNode in="SourceGraphic"/></feMerge>
</filter>
<filter id="glow_00FF88" x="-60%" y="-60%" width="220%" height="220%">
  <feGaussianBlur in="SourceGraphic" stdDeviation="5" result="blur"/>
  <feColorMatrix in="blur" type="matrix"
    values="2.5 0 0 0 0.00 0 2.5 0 0 1.00 0 0 2.5 0 0.53 0 0 0 1 0"
    result="glow"/>
  <feMerge><feMergeNode in="glow"/><feMergeNode in="SourceGraphic"/></feMerge>
</filter>
</defs>
<rect width="900" height="580" fill="url(#bgGrad)"/>
<rect width="900" height="580" fill="url(#grid)"/>
<rect width="900" height="580" fill="url(#dots)"/>
<rect x="4" y="4" width="892" height="572" fill="none" stroke="rgba(124,58,237,0.3)" stroke-width="1" rx="3"/>
<rect x="8" y="8" width="884" height="564" fill="none" stroke="rgba(0,212,255,0.07)" stroke-width="0.5" rx="2"/>
<circle cx="14" cy="14" r="2.5" fill="rgba(0,212,255,0.6)"/>
<circle cx="14" cy="14" r="5.5" fill="none" stroke="rgba(0,212,255,0.25)" stroke-width="0.7"/>
<circle cx="886" cy="14" r="2.5" fill="rgba(0,212,255,0.6)"/>
<circle cx="886" cy="14" r="5.5" fill="none" stroke="rgba(0,212,255,0.25)" stroke-width="0.7"/>
<circle cx="14" cy="566" r="2.5" fill="rgba(0,212,255,0.6)"/>
<circle cx="14" cy="566" r="5.5" fill="none" stroke="rgba(0,212,255,0.25)" stroke-width="0.7"/>
<circle cx="886" cy="566" r="2.5" fill="rgba(0,212,255,0.6)"/>
<circle cx="886" cy="566" r="5.5" fill="none" stroke="rgba(0,212,255,0.25)" stroke-width="0.7"/>
<text x="22" y="26" font-family="Space Mono,monospace" font-size="8.5" fill="rgba(0,212,255,0.45)" letter-spacing="2.5">NEURAL_COMPETENCE_MAP // v2.4</text>
<text x="878" y="26" text-anchor="end" font-family="Space Mono,monospace" font-size="8.5" fill="rgba(124,58,237,0.5)" letter-spacing="2">OPERATOR: T.MARINOS</text>
<line x1="22" y1="32" x2="878" y2="32" stroke="rgba(124,58,237,0.15)" stroke-width="0.5"/>
<line x1="22" y1="548" x2="878" y2="548" stroke="rgba(0,212,255,0.12)" stroke-width="0.5"/>
<text x="450" y="566" text-anchor="middle" font-family="Space Mono,monospace" font-size="8" fill="rgba(0,212,255,0.3)" letter-spacing="4">[ CONVERGENCE ARCHITECTURE · NEUROTECHLABS ]</text>
<circle cx="22" cy="520" r="5" fill="none" stroke="rgba(124,58,237,0.7)" stroke-width="1.2"/>
<text x="32" y="521" font-family="Space Mono,monospace" font-size="7.5" fill="rgba(124,58,237,0.7)" dominant-baseline="middle" letter-spacing="1">DOMAIN</text>
<circle cx="112" cy="520" r="5" fill="none" stroke="rgba(0,212,255,0.7)" stroke-width="1.2"/>
<text x="122" y="521" font-family="Space Mono,monospace" font-size="7.5" fill="rgba(0,212,255,0.7)" dominant-baseline="middle" letter-spacing="1">APPLIED</text>
<circle cx="202" cy="520" r="5" fill="none" stroke="rgba(136,136,136,0.7)" stroke-width="1.2"/>
<text x="212" y="521" font-family="Space Mono,monospace" font-size="7.5" fill="rgba(136,136,136,0.7)" dominant-baseline="middle" letter-spacing="1">TOOLS</text>
<g id="edges">
<path d="M450,290 Q312.2,230.0 200,130" stroke="rgba(124,58,237,0.7)" stroke-width="1.1" fill="none" stroke-linecap="round"/>
<path d="M450,290 Q562.2,190.0 700,130" stroke="rgba(0,212,255,0.7)" stroke-width="1.1" fill="none" stroke-linecap="round"/>
<path d="M450,290 Q337.8,390.0 200,450" stroke="rgba(0,255,136,0.7)" stroke-width="1.1" fill="none" stroke-linecap="round"/>
<path d="M450,290 Q587.8,350.0 700,450" stroke="rgba(244,114,182,0.7)" stroke-width="1.1" fill="none" stroke-linecap="round"/>
<path d="M200,130 Q152.2,183.8 90,220" stroke="rgba(124,58,237,0.6)" stroke-width="1.1" fill="none" stroke-linecap="round"/>
<path d="M200,130 Q276.0,92.2 360,80" stroke="rgba(124,58,237,0.5)" stroke-width="1.1" fill="none" stroke-linecap="round"/>
<path d="M200,130 Q163.0,251.3 90,355" stroke="rgba(124,58,237,0.5)" stroke-width="1.1" fill="none" stroke-linecap="round"/>
<path d="M700,130 Q526.0,132.2 360,80" stroke="rgba(0,212,255,0.6)" stroke-width="1.1" fill="none" stroke-linecap="round"/>
<path d="M700,130 Q629.4,105.4 570,60" stroke="rgba(0,212,255,0.6)" stroke-width="1.1" fill="none" stroke-linecap="round"/>
<path d="M700,130 Q762.2,166.2 810,220" stroke="rgba(0,212,255,0.5)" stroke-width="1.1" fill="none" stroke-linecap="round"/>
<path d="M200,450 Q137.4,411.3 90,355" stroke="rgba(0,255,136,0.5)" stroke-width="1.1" fill="none" stroke-linecap="round"/>
<path d="M200,450 Q258.6,463.7 310,495" stroke="rgba(0,255,136,0.6)" stroke-width="1.1" fill="none" stroke-linecap="round"/>
<path d="M200,450 Q398.6,441.3 590,495" stroke="rgba(0,255,136,0.5)" stroke-width="1.1" fill="none" stroke-linecap="round"/>
<path d="M700,450 Q747.4,393.7 810,355" stroke="rgba(244,114,182,0.6)" stroke-width="1.1" fill="none" stroke-linecap="round"/>
<path d="M700,450 Q648.6,481.3 590,495" stroke="rgba(244,114,182,0.5)" stroke-width="1.1" fill="none" stroke-linecap="round"/>
<path d="M700,450 Q508.6,503.7 310,495" stroke="rgba(244,114,182,0.4)" stroke-width="1.1" fill="none" stroke-linecap="round"/>
<path d="M360,80 Q463.4,53.2 570,60" stroke="rgba(0,212,255,0.35)" stroke-width="1.1" fill="none" stroke-linecap="round"/>
<path d="M90,220 Q100.8,287.5 90,355" stroke="rgba(124,58,237,0.4)" stroke-width="1.1" fill="none" stroke-linecap="round"/>
<path d="M90,220 Q213.8,128.4 360,80" stroke="rgba(124,58,237,0.35)" stroke-width="1.1" fill="none" stroke-linecap="round"/>
<path d="M310,495 Q538.0,317.5 810,220" stroke="rgba(0,255,136,0.3)" stroke-width="1.1" fill="none" stroke-linecap="round"/>
<path d="M590,495 Q678.0,339.9 810,220" stroke="rgba(244,114,182,0.3)" stroke-width="1.1" fill="none" stroke-linecap="round"/>
<path d="M90,220 Q65.6,259.8 30,290" stroke="rgba(124,58,237,0.5)" stroke-width="1.1" fill="none" stroke-linecap="round"/>
<path d="M90,220 Q54.8,192.3 30,155" stroke="rgba(124,58,237,0.5)" stroke-width="1.1" fill="none" stroke-linecap="round"/>
<path d="M360,80 Q243.8,90.9 130,65" stroke="rgba(0,212,255,0.5)" stroke-width="1.1" fill="none" stroke-linecap="round"/>
<path d="M360,80 Q311.4,64.7 270,35" stroke="rgba(0,212,255,0.5)" stroke-width="1.1" fill="none" stroke-linecap="round"/>
<path d="M360,80 Q410.6,43.7 470,25" stroke="rgba(0,212,255,0.5)" stroke-width="1.1" fill="none" stroke-linecap="round"/>
<path d="M570,60 Q727.6,83.5 870,155" stroke="rgba(0,212,255,0.5)" stroke-width="1.1" fill="none" stroke-linecap="round"/>
<path d="M570,60 Q657.2,28.1 750,25" stroke="rgba(0,212,255,0.4)" stroke-width="1.1" fill="none" stroke-linecap="round"/>
<path d="M90,355 Q54.8,327.3 30,290" stroke="rgba(0,255,136,0.4)" stroke-width="1.1" fill="none" stroke-linecap="round"/>
<path d="M90,355 Q44.0,259.8 30,155" stroke="rgba(0,255,136,0.4)" stroke-width="1.1" fill="none" stroke-linecap="round"/>
<path d="M310,495 Q474.2,495.9 630,548" stroke="rgba(0,255,136,0.5)" stroke-width="1.1" fill="none" stroke-linecap="round"/>
<path d="M310,495 Q374.2,511.9 430,548" stroke="rgba(0,255,136,0.4)" stroke-width="1.1" fill="none" stroke-linecap="round"/>
<path d="M590,495 Q514.2,534.3 430,548" stroke="rgba(244,114,182,0.5)" stroke-width="1.1" fill="none" stroke-linecap="round"/>
<path d="M590,495 Q614.2,518.3 630,548" stroke="rgba(244,114,182,0.4)" stroke-width="1.1" fill="none" stroke-linecap="round"/>
<path d="M810,355 Q834.8,317.7 870,290" stroke="rgba(244,114,182,0.5)" stroke-width="1.1" fill="none" stroke-linecap="round"/>
<path d="M810,220 Q834.8,182.7 870,155" stroke="rgba(0,212,255,0.4)" stroke-width="1.1" fill="none" stroke-linecap="round"/>
<path d="M810,220 Q764.4,127.3 750,25" stroke="rgba(0,212,255,0.4)" stroke-width="1.1" fill="none" stroke-linecap="round"/>
</g>
<g id="nodes">
<circle cx="450" cy="290" r="58" fill="none" stroke="rgba(0,212,255,0.08)" stroke-width="0.8"/>
<circle cx="450" cy="290" r="53" fill="none" stroke="rgba(0,212,255,0.18)" stroke-width="0.8"/>
<circle cx="450" cy="290" r="48" fill="rgba(8,8,14,0.97)" stroke="rgba(0,212,255,0.88)" stroke-width="1.5" filter="url(#glow_00D4FF)"/>
<circle cx="450" cy="290" r="46" fill="rgba(0,212,255,0.04)"/>
<circle cx="450" cy="276.6" r="15.4" fill="rgba(0,212,255,0.07)"/>
<text x="450" y="283.5" text-anchor="middle" dominant-baseline="middle" font-family="Space Mono,Courier New,monospace" font-size="10.5" font-weight="700" fill="rgba(0,212,255,1)" letter-spacing="0.6">TACIANA</text>
<text x="450" y="296.5" text-anchor="middle" dominant-baseline="middle" font-family="Space Mono,Courier New,monospace" font-size="10.5" font-weight="700" fill="rgba(0,212,255,1)" letter-spacing="0.6">MARINOS</text>
<circle cx="200" cy="130" r="46" fill="none" stroke="rgba(124,58,237,0.08)" stroke-width="0.8"/>
<circle cx="200" cy="130" r="41" fill="none" stroke="rgba(124,58,237,0.18)" stroke-width="0.8"/>
<circle cx="200" cy="130" r="36" fill="rgba(8,8,14,0.97)" stroke="rgba(124,58,237,0.88)" stroke-width="1.5" filter="url(#glow_7C3AED)"/>
<circle cx="200" cy="130" r="34" fill="rgba(124,58,237,0.04)"/>
<circle cx="200" cy="119.9" r="11.5" fill="rgba(124,58,237,0.07)"/>
<text x="200" y="124.2" text-anchor="middle" dominant-baseline="middle" font-family="Space Mono,Courier New,monospace" font-size="9" font-weight="700" fill="rgba(124,58,237,1)" letter-spacing="0.6">NEURO</text>
<text x="200" y="135.8" text-anchor="middle" dominant-baseline="middle" font-family="Space Mono,Courier New,monospace" font-size="9" font-weight="700" fill="rgba(124,58,237,1)" letter-spacing="0.6">SCIENCE</text>
<circle cx="700" cy="130" r="46" fill="none" stroke="rgba(0,212,255,0.08)" stroke-width="0.8"/>
<circle cx="700" cy="130" r="41" fill="none" stroke="rgba(0,212,255,0.18)" stroke-width="0.8"/>
<circle cx="700" cy="130" r="36" fill="rgba(8,8,14,0.97)" stroke="rgba(0,212,255,0.88)" stroke-width="1.5" filter="url(#glow_00D4FF)"/>
<circle cx="700" cy="130" r="34" fill="rgba(0,212,255,0.04)"/>
<circle cx="700" cy="119.9" r="11.5" fill="rgba(0,212,255,0.07)"/>
<text x="700" y="124.2" text-anchor="middle" dominant-baseline="middle" font-family="Space Mono,Courier New,monospace" font-size="9" font-weight="700" fill="rgba(0,212,255,1)" letter-spacing="0.6">COMPUTER</text>
<text x="700" y="135.8" text-anchor="middle" dominant-baseline="middle" font-family="Space Mono,Courier New,monospace" font-size="9" font-weight="700" fill="rgba(0,212,255,1)" letter-spacing="0.6">SCIENCE</text>
<circle cx="200" cy="450" r="46" fill="none" stroke="rgba(0,255,136,0.08)" stroke-width="0.8"/>
<circle cx="200" cy="450" r="41" fill="none" stroke="rgba(0,255,136,0.18)" stroke-width="0.8"/>
<circle cx="200" cy="450" r="36" fill="rgba(8,8,14,0.97)" stroke="rgba(0,255,136,0.88)" stroke-width="1.5" filter="url(#glow_00FF88)"/>
<circle cx="200" cy="450" r="34" fill="rgba(0,255,136,0.04)"/>
<circle cx="200" cy="439.9" r="11.5" fill="rgba(0,255,136,0.07)"/>
<text x="200" y="444.2" text-anchor="middle" dominant-baseline="middle" font-family="Space Mono,Courier New,monospace" font-size="9" font-weight="700" fill="rgba(0,255,136,1)" letter-spacing="0.6">HEALTH &amp;</text>
<text x="200" y="455.8" text-anchor="middle" dominant-baseline="middle" font-family="Space Mono,Courier New,monospace" font-size="9" font-weight="700" fill="rgba(0,255,136,1)" letter-spacing="0.6">MEDICINE</text>
<circle cx="700" cy="450" r="46" fill="none" stroke="rgba(244,114,182,0.08)" stroke-width="0.8"/>
<circle cx="700" cy="450" r="41" fill="none" stroke="rgba(244,114,182,0.18)" stroke-width="0.8"/>
<circle cx="700" cy="450" r="36" fill="rgba(8,8,14,0.97)" stroke="rgba(244,114,182,0.88)" stroke-width="1.5" filter="url(#glow_F472B6)"/>
<circle cx="700" cy="450" r="34" fill="rgba(244,114,182,0.04)"/>
<circle cx="700" cy="439.9" r="11.5" fill="rgba(244,114,182,0.07)"/>
<text x="700" y="444.2" text-anchor="middle" dominant-baseline="middle" font-family="Space Mono,Courier New,monospace" font-size="9" font-weight="700" fill="rgba(244,114,182,1)" letter-spacing="0.6">DESIGN</text>
<text x="700" y="455.8" text-anchor="middle" dominant-baseline="middle" font-family="Space Mono,Courier New,monospace" font-size="9" font-weight="700" fill="rgba(244,114,182,1)" letter-spacing="0.6">&amp; UX</text>
<circle cx="90" cy="220" r="36" fill="none" stroke="rgba(167,139,250,0.08)" stroke-width="0.8"/>
<circle cx="90" cy="220" r="31" fill="none" stroke="rgba(167,139,250,0.18)" stroke-width="0.8"/>
<circle cx="90" cy="220" r="26" fill="rgba(8,8,14,0.97)" stroke="rgba(167,139,250,0.88)" stroke-width="1.5" filter="url(#glow_A78BFA)"/>
<circle cx="90" cy="220" r="24" fill="rgba(167,139,250,0.04)"/>
<circle cx="90" cy="212.7" r="8.3" fill="rgba(167,139,250,0.07)"/>
<text x="90" y="220.0" text-anchor="middle" dominant-baseline="middle" font-family="Space Mono,Courier New,monospace" font-size="8" font-weight="600" fill="rgba(167,139,250,1)" letter-spacing="0.6">BCI / EEG</text>
<circle cx="360" cy="80" r="36" fill="none" stroke="rgba(0,212,255,0.08)" stroke-width="0.8"/>
<circle cx="360" cy="80" r="31" fill="none" stroke="rgba(0,212,255,0.18)" stroke-width="0.8"/>
<circle cx="360" cy="80" r="26" fill="rgba(8,8,14,0.97)" stroke="rgba(0,212,255,0.88)" stroke-width="1.5" filter="url(#glow_00D4FF)"/>
<circle cx="360" cy="80" r="24" fill="rgba(0,212,255,0.04)"/>
<circle cx="360" cy="72.7" r="8.3" fill="rgba(0,212,255,0.07)"/>
<text x="360" y="80.0" text-anchor="middle" dominant-baseline="middle" font-family="Space Mono,Courier New,monospace" font-size="8" font-weight="600" fill="rgba(0,212,255,1)" letter-spacing="0.6">AI / ML</text>
<circle cx="570" cy="60" r="36" fill="none" stroke="rgba(167,139,250,0.08)" stroke-width="0.8"/>
<circle cx="570" cy="60" r="31" fill="none" stroke="rgba(167,139,250,0.18)" stroke-width="0.8"/>
<circle cx="570" cy="60" r="26" fill="rgba(8,8,14,0.97)" stroke="rgba(167,139,250,0.88)" stroke-width="1.5" filter="url(#glow_A78BFA)"/>
<circle cx="570" cy="60" r="24" fill="rgba(167,139,250,0.04)"/>
<circle cx="570" cy="52.7" r="8.3" fill="rgba(167,139,250,0.07)"/>
<text x="570" y="60.0" text-anchor="middle" dominant-baseline="middle" font-family="Space Mono,Courier New,monospace" font-size="8" font-weight="600" fill="rgba(167,139,250,1)" letter-spacing="0.6">ROBOTICS</text>
<circle cx="90" cy="355" r="36" fill="none" stroke="rgba(0,255,136,0.08)" stroke-width="0.8"/>
<circle cx="90" cy="355" r="31" fill="none" stroke="rgba(0,255,136,0.18)" stroke-width="0.8"/>
<circle cx="90" cy="355" r="26" fill="rgba(8,8,14,0.97)" stroke="rgba(0,255,136,0.88)" stroke-width="1.5" filter="url(#glow_00FF88)"/>
<circle cx="90" cy="355" r="24" fill="rgba(0,255,136,0.04)"/>
<circle cx="90" cy="347.7" r="8.3" fill="rgba(0,255,136,0.07)"/>
<text x="90" y="349.8" text-anchor="middle" dominant-baseline="middle" font-family="Space Mono,Courier New,monospace" font-size="8" font-weight="600" fill="rgba(0,255,136,1)" letter-spacing="0.6">SIGNAL</text>
<text x="90" y="360.2" text-anchor="middle" dominant-baseline="middle" font-family="Space Mono,Courier New,monospace" font-size="8" font-weight="600" fill="rgba(0,255,136,1)" letter-spacing="0.6">PROC</text>
<circle cx="310" cy="495" r="36" fill="none" stroke="rgba(0,255,136,0.08)" stroke-width="0.8"/>
<circle cx="310" cy="495" r="31" fill="none" stroke="rgba(0,255,136,0.18)" stroke-width="0.8"/>
<circle cx="310" cy="495" r="26" fill="rgba(8,8,14,0.97)" stroke="rgba(0,255,136,0.88)" stroke-width="1.5" filter="url(#glow_00FF88)"/>
<circle cx="310" cy="495" r="24" fill="rgba(0,255,136,0.04)"/>
<circle cx="310" cy="487.7" r="8.3" fill="rgba(0,255,136,0.07)"/>
<text x="310" y="489.8" text-anchor="middle" dominant-baseline="middle" font-family="Space Mono,Courier New,monospace" font-size="8" font-weight="600" fill="rgba(0,255,136,1)" letter-spacing="0.6">MEDICAL</text>
<text x="310" y="500.2" text-anchor="middle" dominant-baseline="middle" font-family="Space Mono,Courier New,monospace" font-size="8" font-weight="600" fill="rgba(0,255,136,1)" letter-spacing="0.6">IMAGING</text>
<circle cx="590" cy="495" r="36" fill="none" stroke="rgba(244,114,182,0.08)" stroke-width="0.8"/>
<circle cx="590" cy="495" r="31" fill="none" stroke="rgba(244,114,182,0.18)" stroke-width="0.8"/>
<circle cx="590" cy="495" r="26" fill="rgba(8,8,14,0.97)" stroke="rgba(244,114,182,0.88)" stroke-width="1.5" filter="url(#glow_F472B6)"/>
<circle cx="590" cy="495" r="24" fill="rgba(244,114,182,0.04)"/>
<circle cx="590" cy="487.7" r="8.3" fill="rgba(244,114,182,0.07)"/>
<text x="590" y="489.8" text-anchor="middle" dominant-baseline="middle" font-family="Space Mono,Courier New,monospace" font-size="8" font-weight="600" fill="rgba(244,114,182,1)" letter-spacing="0.6">HEALTH</text>
<text x="590" y="500.2" text-anchor="middle" dominant-baseline="middle" font-family="Space Mono,Courier New,monospace" font-size="8" font-weight="600" fill="rgba(244,114,182,1)" letter-spacing="0.6">TECH</text>
<circle cx="810" cy="355" r="36" fill="none" stroke="rgba(244,114,182,0.08)" stroke-width="0.8"/>
<circle cx="810" cy="355" r="31" fill="none" stroke="rgba(244,114,182,0.18)" stroke-width="0.8"/>
<circle cx="810" cy="355" r="26" fill="rgba(8,8,14,0.97)" stroke="rgba(244,114,182,0.88)" stroke-width="1.5" filter="url(#glow_F472B6)"/>
<circle cx="810" cy="355" r="24" fill="rgba(244,114,182,0.04)"/>
<circle cx="810" cy="347.7" r="8.3" fill="rgba(244,114,182,0.07)"/>
<text x="810" y="349.8" text-anchor="middle" dominant-baseline="middle" font-family="Space Mono,Courier New,monospace" font-size="8" font-weight="600" fill="rgba(244,114,182,1)" letter-spacing="0.6">GAME</text>
<text x="810" y="360.2" text-anchor="middle" dominant-baseline="middle" font-family="Space Mono,Courier New,monospace" font-size="8" font-weight="600" fill="rgba(244,114,182,1)" letter-spacing="0.6">DEV</text>
<circle cx="810" cy="220" r="36" fill="none" stroke="rgba(0,212,255,0.08)" stroke-width="0.8"/>
<circle cx="810" cy="220" r="31" fill="none" stroke="rgba(0,212,255,0.18)" stroke-width="0.8"/>
<circle cx="810" cy="220" r="26" fill="rgba(8,8,14,0.97)" stroke="rgba(0,212,255,0.88)" stroke-width="1.5" filter="url(#glow_00D4FF)"/>
<circle cx="810" cy="220" r="24" fill="rgba(0,212,255,0.04)"/>
<circle cx="810" cy="212.7" r="8.3" fill="rgba(0,212,255,0.07)"/>
<text x="810" y="214.8" text-anchor="middle" dominant-baseline="middle" font-family="Space Mono,Courier New,monospace" font-size="8" font-weight="600" fill="rgba(0,212,255,1)" letter-spacing="0.6">DATA</text>
<text x="810" y="225.2" text-anchor="middle" dominant-baseline="middle" font-family="Space Mono,Courier New,monospace" font-size="8" font-weight="600" fill="rgba(0,212,255,1)" letter-spacing="0.6">SCI</text>
<circle cx="130" cy="65" r="30" fill="none" stroke="rgba(136,136,136,0.08)" stroke-width="0.8"/>
<circle cx="130" cy="65" r="25" fill="none" stroke="rgba(136,136,136,0.18)" stroke-width="0.8"/>
<circle cx="130" cy="65" r="20" fill="rgba(8,8,14,0.97)" stroke="rgba(136,136,136,0.88)" stroke-width="1.5" filter="url(#glow_888888)"/>
<circle cx="130" cy="65" r="18" fill="rgba(136,136,136,0.04)"/>
<circle cx="130" cy="59.4" r="6.4" fill="rgba(136,136,136,0.07)"/>
<text x="130" y="65.0" text-anchor="middle" dominant-baseline="middle" font-family="Space Mono,Courier New,monospace" font-size="7.5" font-weight="600" fill="rgba(136,136,136,1)" letter-spacing="0.6">Python</text>
<circle cx="270" cy="35" r="30" fill="none" stroke="rgba(136,136,136,0.08)" stroke-width="0.8"/>
<circle cx="270" cy="35" r="25" fill="none" stroke="rgba(136,136,136,0.18)" stroke-width="0.8"/>
<circle cx="270" cy="35" r="20" fill="rgba(8,8,14,0.97)" stroke="rgba(136,136,136,0.88)" stroke-width="1.5" filter="url(#glow_888888)"/>
<circle cx="270" cy="35" r="18" fill="rgba(136,136,136,0.04)"/>
<circle cx="270" cy="29.4" r="6.4" fill="rgba(136,136,136,0.07)"/>
<text x="270" y="35.0" text-anchor="middle" dominant-baseline="middle" font-family="Space Mono,Courier New,monospace" font-size="7.5" font-weight="600" fill="rgba(136,136,136,1)" letter-spacing="0.6">TensorFlow</text>
<circle cx="470" cy="25" r="30" fill="none" stroke="rgba(136,136,136,0.08)" stroke-width="0.8"/>
<circle cx="470" cy="25" r="25" fill="none" stroke="rgba(136,136,136,0.18)" stroke-width="0.8"/>
<circle cx="470" cy="25" r="20" fill="rgba(8,8,14,0.97)" stroke="rgba(136,136,136,0.88)" stroke-width="1.5" filter="url(#glow_888888)"/>
<circle cx="470" cy="25" r="18" fill="rgba(136,136,136,0.04)"/>
<circle cx="470" cy="19.4" r="6.4" fill="rgba(136,136,136,0.07)"/>
<text x="470" y="25.0" text-anchor="middle" dominant-baseline="middle" font-family="Space Mono,Courier New,monospace" font-size="7.5" font-weight="600" fill="rgba(136,136,136,1)" letter-spacing="0.6">PyTorch</text>
<circle cx="30" cy="290" r="30" fill="none" stroke="rgba(136,136,136,0.08)" stroke-width="0.8"/>
<circle cx="30" cy="290" r="25" fill="none" stroke="rgba(136,136,136,0.18)" stroke-width="0.8"/>
<circle cx="30" cy="290" r="20" fill="rgba(8,8,14,0.97)" stroke="rgba(136,136,136,0.88)" stroke-width="1.5" filter="url(#glow_888888)"/>
<circle cx="30" cy="290" r="18" fill="rgba(136,136,136,0.04)"/>
<circle cx="30" cy="284.4" r="6.4" fill="rgba(136,136,136,0.07)"/>
<text x="30" y="290.0" text-anchor="middle" dominant-baseline="middle" font-family="Space Mono,Courier New,monospace" font-size="7.5" font-weight="600" fill="rgba(136,136,136,1)" letter-spacing="0.6">BrainFlow</text>
<circle cx="30" cy="155" r="30" fill="none" stroke="rgba(136,136,136,0.08)" stroke-width="0.8"/>
<circle cx="30" cy="155" r="25" fill="none" stroke="rgba(136,136,136,0.18)" stroke-width="0.8"/>
<circle cx="30" cy="155" r="20" fill="rgba(8,8,14,0.97)" stroke="rgba(136,136,136,0.88)" stroke-width="1.5" filter="url(#glow_888888)"/>
<circle cx="30" cy="155" r="18" fill="rgba(136,136,136,0.04)"/>
<circle cx="30" cy="149.4" r="6.4" fill="rgba(136,136,136,0.07)"/>
<text x="30" y="155.0" text-anchor="middle" dominant-baseline="middle" font-family="Space Mono,Courier New,monospace" font-size="7.5" font-weight="600" fill="rgba(136,136,136,1)" letter-spacing="0.6">MNE-Py</text>
<circle cx="870" cy="290" r="30" fill="none" stroke="rgba(136,136,136,0.08)" stroke-width="0.8"/>
<circle cx="870" cy="290" r="25" fill="none" stroke="rgba(136,136,136,0.18)" stroke-width="0.8"/>
<circle cx="870" cy="290" r="20" fill="rgba(8,8,14,0.97)" stroke="rgba(136,136,136,0.88)" stroke-width="1.5" filter="url(#glow_888888)"/>
<circle cx="870" cy="290" r="18" fill="rgba(136,136,136,0.04)"/>
<circle cx="870" cy="284.4" r="6.4" fill="rgba(136,136,136,0.07)"/>
<text x="870" y="290.0" text-anchor="middle" dominant-baseline="middle" font-family="Space Mono,Courier New,monospace" font-size="7.5" font-weight="600" fill="rgba(136,136,136,1)" letter-spacing="0.6">Unity</text>
<circle cx="430" cy="548" r="30" fill="none" stroke="rgba(136,136,136,0.08)" stroke-width="0.8"/>
<circle cx="430" cy="548" r="25" fill="none" stroke="rgba(136,136,136,0.18)" stroke-width="0.8"/>
<circle cx="430" cy="548" r="20" fill="rgba(8,8,14,0.97)" stroke="rgba(136,136,136,0.88)" stroke-width="1.5" filter="url(#glow_888888)"/>
<circle cx="430" cy="548" r="18" fill="rgba(136,136,136,0.04)"/>
<circle cx="430" cy="542.4" r="6.4" fill="rgba(136,136,136,0.07)"/>
<text x="430" y="548.0" text-anchor="middle" dominant-baseline="middle" font-family="Space Mono,Courier New,monospace" font-size="7.5" font-weight="600" fill="rgba(136,136,136,1)" letter-spacing="0.6">FHIR/HL7</text>
<circle cx="630" cy="548" r="30" fill="none" stroke="rgba(136,136,136,0.08)" stroke-width="0.8"/>
<circle cx="630" cy="548" r="25" fill="none" stroke="rgba(136,136,136,0.18)" stroke-width="0.8"/>
<circle cx="630" cy="548" r="20" fill="rgba(8,8,14,0.97)" stroke="rgba(136,136,136,0.88)" stroke-width="1.5" filter="url(#glow_888888)"/>
<circle cx="630" cy="548" r="18" fill="rgba(136,136,136,0.04)"/>
<circle cx="630" cy="542.4" r="6.4" fill="rgba(136,136,136,0.07)"/>
<text x="630" y="548.0" text-anchor="middle" dominant-baseline="middle" font-family="Space Mono,Courier New,monospace" font-size="7.5" font-weight="600" fill="rgba(136,136,136,1)" letter-spacing="0.6">DICOM</text>
<circle cx="870" cy="155" r="30" fill="none" stroke="rgba(136,136,136,0.08)" stroke-width="0.8"/>
<circle cx="870" cy="155" r="25" fill="none" stroke="rgba(136,136,136,0.18)" stroke-width="0.8"/>
<circle cx="870" cy="155" r="20" fill="rgba(8,8,14,0.97)" stroke="rgba(136,136,136,0.88)" stroke-width="1.5" filter="url(#glow_888888)"/>
<circle cx="870" cy="155" r="18" fill="rgba(136,136,136,0.04)"/>
<circle cx="870" cy="149.4" r="6.4" fill="rgba(136,136,136,0.07)"/>
<text x="870" y="155.0" text-anchor="middle" dominant-baseline="middle" font-family="Space Mono,Courier New,monospace" font-size="7.5" font-weight="600" fill="rgba(136,136,136,1)" letter-spacing="0.6">C++ / R</text>
<circle cx="750" cy="25" r="30" fill="none" stroke="rgba(136,136,136,0.08)" stroke-width="0.8"/>
<circle cx="750" cy="25" r="25" fill="none" stroke="rgba(136,136,136,0.18)" stroke-width="0.8"/>
<circle cx="750" cy="25" r="20" fill="rgba(8,8,14,0.97)" stroke="rgba(136,136,136,0.88)" stroke-width="1.5" filter="url(#glow_888888)"/>
<circle cx="750" cy="25" r="18" fill="rgba(136,136,136,0.04)"/>
<circle cx="750" cy="19.4" r="6.4" fill="rgba(136,136,136,0.07)"/>
<text x="750" y="25.0" text-anchor="middle" dominant-baseline="middle" font-family="Space Mono,Courier New,monospace" font-size="7.5" font-weight="600" fill="rgba(136,136,136,1)" letter-spacing="0.6">Julia</text>
</g>
</svg>